<svg xmlns="http://www.w3.org/2000/svg" width="185" height="185" viewBox="0 0 37 37"><path d="M4 4h7v7h-7zM17 4h1v1h-1zM22 4h1v1h-1zM26 4h7v7h-7zM5 5v5h5v-5zM12 5h1v1h1v1h-1v1h-1zM14 5h1v1h-1zM16 5h1v1h-1zM18 5h1v1h1v1h-2zM20 5h2v1h-2zM24 5h1v7h-1v2h-1v-3h1v-2h-1v2h-1v-2h-2v-2h2v1h2v-1h-2v-1h2zM27 5v5h5v-5zM6 6h3v3h-3zM28 6h3v3h-3zM14 7h4v2h-1v-1h-3zM13 8h1v1h-1zM14 9h2v1h-1v2h-1zM18 9h1v2h-1zM12 10h1v3h-1zM16 10h1v1h-1zM20 10h1v1h-1zM4 12h1v1h2v1h-1v1h-1v-1h-1zM10 12h1v1h-1zM16 12h6v1h-2v1h1v3h-1v-2h-1v-1h-2v-1h-1zM25 12h2v1h-1v1h-1zM29 12h3v2h-2v-1h-1zM8 13h2v1h2v1h-5v-1h1zM13 13h3v1h-1v2h-2v1h2v2h-1v-1h-1v1h-4v-1h2v-1h-2v-1h3v-1h2v-1h-1zM27 13h2v2h-1v-1h-1zM16 14h1v1h-1zM24 14h1v1h-1zM4 15h1v1h-1zM18 15h1v2h-1v1h1v-1h1v2h-1v1h3v1h-1v1h-1v2h2v1h-2v1h1v1h-3v3h-1v-1h-1v2h-1v2h-1v-3h1v-1h-1v-1h1v-2h1v2h1v-3h1v1h1v-2h-1v-1h-1v-1h2v-1h-1v-1h-2v-2h1v-2h1zM22 15h1v1h-1zM25 15h1v1h-1zM29 15h1v1h-1zM7 16h1v1h1v1h-2v1h1v2h1v1h-1v2h-2v-1h-1v2h-1v-6h1v2h1v1h1v-1h-1v-2h-1v-2h2zM15 16h1v1h-1zM23 16h1v1h1v1h1v1h-2v-1h-1v1h-1v-1h-1v-1h2zM26 16h2v1h1v1h2v3h2v2h-1v-1h-2v-1h-1v-1h1v-1h-1v1h-1v1h1v1h1v1h-2v-1h-2v-1h1v-2h1v-1h-2zM32 16h1v2h-2v-1h1zM13 19h1v1h1v1h-2zM23 19h1v4h-1zM32 19h1v1h-1zM9 20h2v1h-2zM25 20h1v1h-1zM12 21h1v1h-1zM10 22h2v1h-2zM13 22h1v1h-1zM15 22h1v3h-2v2h-1v-1h-1v-1h-2v-1h2v-1h1v1h1v-1h1zM9 23h1v1h-1zM22 23h1v1h-1zM24 23h1v1h1v-1h1v1h2v1h1v1h1v1h-2v1h1v1h1v1h1v1h-1v2h-1v-1h-1v-1h-1v1h1v1h-3v-2h-3v-1h-1v1h-1v-1h-1v3h-1v-2h-1v-1h1v-2h2v1h1v-1h1v-2h1v-1h-1v-1h1zM8 24h1v1h-1zM30 24h3v1h-3zM22 25h1v1h-1zM25 25v3h3v-3zM4 26h7v7h-7zM26 26h1v1h-1zM5 27v5h5v-5zM31 27h2v3h-1v-2h-1zM6 28h3v3h-3zM13 29h1v1h-1zM26 29v1h3v-1zM17 31h1v1h-1zM32 31h1v1h-1zM12 32h1v1h-1zM21 32h1v1h-1zM23 32h1v1h-1z"/></svg>